<svg width="123" height="32" viewBox="0 0 123 32" fill="none" xmlns="http://www.w3.org/2000/svg">
<path d="M38.8805 24.6207C38.06 24.6207 37.2494 24.5268 36.4487 24.339C35.648 24.1511 34.9214 23.8743 34.2689 23.5086C33.6165 23.1428 33.0925 22.6881 32.6971 22.1444C32.3116 21.5908 32.1188 20.9482 32.1188 20.2167C32.1188 20.0091 32.1336 19.8064 32.1633 19.6087C32.2028 19.4011 32.2374 19.243 32.2671 19.1342H37.5163C37.4966 19.1935 37.4768 19.2677 37.457 19.3566C37.4471 19.4456 37.4422 19.5247 37.4422 19.5939C37.4422 19.9893 37.63 20.276 38.0057 20.4539C38.3912 20.622 38.9201 20.706 39.5923 20.706C39.9581 20.706 40.3387 20.6665 40.7341 20.5874C41.1295 20.4984 41.4607 20.3551 41.7276 20.1574C42.0044 19.9498 42.1428 19.668 42.1428 19.3122C42.1428 18.9859 41.8956 18.7388 41.4014 18.5707C40.9071 18.4027 40.1459 18.2346 39.1178 18.0666C38.2578 17.9183 37.4076 17.7008 36.5673 17.4141C35.7369 17.1176 35.0499 16.6826 34.5062 16.1092C33.9625 15.526 33.6906 14.75 33.6906 13.7812C33.6906 12.8223 33.918 11.9919 34.3727 11.29C34.8275 10.5881 35.4404 10.0098 36.2114 9.55508C36.9924 9.09046 37.8722 8.74941 38.8509 8.53193C39.8296 8.30456 40.8379 8.19087 41.8759 8.19087C42.9929 8.19087 44.0458 8.37376 45.0343 8.73952C46.0229 9.0954 46.8286 9.60451 47.4513 10.2668C48.0741 10.9292 48.3855 11.7151 48.3855 12.6246C48.3855 12.8223 48.3707 13.015 48.341 13.2029C48.3114 13.3907 48.2817 13.539 48.2521 13.6477H43.0621C43.0918 13.5884 43.1116 13.5241 43.1215 13.4549C43.1313 13.3857 43.1363 13.3067 43.1363 13.2177C43.1363 12.9409 43.0424 12.7234 42.8545 12.5652C42.6766 12.3972 42.4492 12.2736 42.1724 12.1945C41.8956 12.1056 41.604 12.0611 41.2976 12.0611C40.9911 12.0611 40.6501 12.1006 40.2744 12.1797C39.8988 12.2489 39.5775 12.3725 39.3106 12.5504C39.0437 12.7284 38.9102 12.9755 38.9102 13.2918C38.9102 13.6378 39.1425 13.9047 39.6071 14.0926C40.0718 14.2705 40.7242 14.4287 41.5645 14.5671C42.1082 14.656 42.7112 14.7796 43.3735 14.9378C44.0359 15.096 44.6636 15.3283 45.2567 15.6347C45.8598 15.9412 46.354 16.3415 46.7396 16.8358C47.1251 17.3202 47.3179 17.943 47.3179 18.7042C47.3179 19.7224 47.0757 20.6022 46.5913 21.3436C46.1168 22.0851 45.4792 22.698 44.6784 23.1824C43.8777 23.6668 42.9732 24.0276 41.9648 24.2648C40.9664 24.5021 39.9383 24.6207 38.8805 24.6207ZM55.6331 24.6207C53.1914 24.6207 51.3329 23.993 50.0577 22.7375C48.7824 21.482 48.1448 19.841 48.1448 17.8145C48.1448 16.3218 48.4018 14.9823 48.9159 13.796C49.4299 12.6097 50.1516 11.6014 51.0808 10.771C52.0101 9.93074 53.1074 9.29312 54.3727 8.85815C55.648 8.4133 57.0517 8.19087 58.584 8.19087C60.1854 8.19087 61.515 8.47755 62.5728 9.05092C63.6404 9.6144 64.4412 10.3311 64.975 11.201C65.5088 12.071 65.7757 12.9656 65.7757 13.885C65.7757 14.0728 65.7658 14.2458 65.7461 14.404C65.7263 14.5621 65.7065 14.6857 65.6868 14.7747H60.4523C60.4622 14.7154 60.4672 14.661 60.4672 14.6116C60.4672 14.5621 60.4672 14.5028 60.4672 14.4336C60.4672 14.0975 60.393 13.7713 60.2448 13.4549C60.0965 13.1386 59.8394 12.8766 59.4737 12.669C59.1079 12.4516 58.5889 12.3428 57.9167 12.3428C57.2445 12.3428 56.6316 12.4812 56.078 12.758C55.5343 13.0348 55.0696 13.4203 54.6841 13.9146C54.2986 14.399 54.002 14.9526 53.7944 15.5754C53.5868 16.1883 53.483 16.8358 53.483 17.5179C53.483 18.4373 53.7203 19.1589 54.1948 19.6829C54.6693 20.2068 55.3366 20.4688 56.1966 20.4688C56.8886 20.4688 57.4669 20.365 57.9315 20.1574C58.406 19.9399 58.7866 19.6532 59.0733 19.2973C59.3699 18.9316 59.5923 18.5262 59.7406 18.0814H64.9898C64.8613 18.8722 64.5549 19.6532 64.0705 20.4243C63.596 21.1954 62.9583 21.8972 62.1576 22.5299C61.3569 23.1626 60.4079 23.6717 59.3106 24.0572C58.2133 24.4329 56.9875 24.6207 55.6331 24.6207ZM75.7172 24.25L77.1704 17.4438C77.2396 17.1571 77.3088 16.8259 77.378 16.4503C77.4472 16.0647 77.5065 15.694 77.5559 15.3381C77.6153 14.9724 77.6449 14.6808 77.6449 14.4633C77.6449 14.1964 77.6054 13.9492 77.5263 13.7219C77.4571 13.4945 77.3385 13.3017 77.1704 13.1435C77.0122 12.9755 76.7948 12.847 76.518 12.758C76.2412 12.669 75.8952 12.6246 75.48 12.6246C74.788 12.6246 74.185 12.763 73.6709 13.0398C73.1569 13.3165 72.7367 13.712 72.4105 14.226C72.0942 14.7401 71.8569 15.353 71.6987 16.0647L70.6608 15.0119C70.9573 13.6378 71.4911 12.4417 72.2622 11.4235C73.0333 10.3954 73.9724 9.59957 75.0796 9.03609C76.1868 8.47261 77.3928 8.19087 78.6977 8.19087C79.6369 8.19087 80.4079 8.31939 81.011 8.57641C81.614 8.82355 82.0835 9.15472 82.4197 9.56991C82.7558 9.97522 82.9881 10.425 83.1166 10.9193C83.255 11.4037 83.3242 11.8782 83.3242 12.3428C83.3242 12.8865 83.25 13.5439 83.1018 14.315C82.9634 15.0861 82.7656 16.0598 82.5086 17.2362L80.9961 24.25H75.7172ZM64.6997 24.25L69.6228 1.07325H74.9017L69.9786 24.25H64.6997ZM86.0904 17.8886L86.7725 14.5819H96.6333L96.0699 15.353C96.1292 15.1553 96.1687 14.9724 96.1885 14.8043C96.2181 14.6264 96.233 14.4534 96.233 14.2853C96.233 13.8998 96.1391 13.534 95.9512 13.188C95.7634 12.842 95.4619 12.5603 95.0467 12.3428C94.6315 12.1253 94.0779 12.0166 93.3859 12.0166C92.5951 12.0166 91.8932 12.1649 91.2803 12.4614C90.6773 12.758 90.1731 13.1732 89.7678 13.707C89.3625 14.2408 89.0511 14.8636 88.8336 15.5754C88.626 16.2773 88.5222 17.0434 88.5222 17.8738C88.5222 18.4669 88.6211 18.981 88.8188 19.416C89.0165 19.841 89.3378 20.1673 89.7826 20.3946C90.2374 20.622 90.8453 20.7357 91.6065 20.7357C92.1601 20.7357 92.6396 20.6912 93.0449 20.6022C93.4601 20.5133 93.811 20.3996 94.0977 20.2612C94.3844 20.1129 94.6117 19.9547 94.7798 19.7867C94.9479 19.6087 95.0566 19.4357 95.106 19.2677H100.34C100.143 19.9498 99.7967 20.6121 99.3024 21.2547C98.8082 21.8873 98.1706 22.4607 97.3896 22.9748C96.6086 23.4789 95.6843 23.8793 94.6167 24.1759C93.5589 24.4724 92.3628 24.6207 91.0282 24.6207C89.4268 24.6207 88.0625 24.334 86.9356 23.7607C85.8086 23.1774 84.9486 22.3767 84.3554 21.3585C83.7623 20.3304 83.4657 19.149 83.4657 17.8145C83.4657 16.4107 83.7277 15.1207 84.2517 13.9443C84.7756 12.7679 85.5071 11.7497 86.4463 10.8896C87.3854 10.0296 88.4777 9.36726 89.7233 8.90263C90.9689 8.42813 92.3035 8.19087 93.727 8.19087C95.3087 8.19087 96.663 8.46273 97.79 9.00643C98.9169 9.55014 99.7819 10.3163 100.385 11.3048C100.988 12.2934 101.289 13.4648 101.289 14.8192C101.289 15.2838 101.245 15.8077 101.156 16.391C101.067 16.9742 100.948 17.4734 100.8 17.8886H86.0904ZM107.053 24.6207C105.293 24.6207 103.89 24.0671 102.842 22.9599C101.804 21.8429 101.285 20.2414 101.285 18.1555C101.285 16.8012 101.512 15.526 101.967 14.3298C102.432 13.1238 103.074 12.0611 103.895 11.1417C104.725 10.2224 105.694 9.50071 106.801 8.97678C107.908 8.45284 109.119 8.19087 110.434 8.19087C111.511 8.19087 112.456 8.43307 113.266 8.91746C114.087 9.40186 114.724 10.0691 115.179 10.9193C115.644 11.7695 115.876 12.7531 115.876 13.8701C115.876 14.1667 115.851 14.5127 115.802 14.9081C115.752 15.3035 115.688 15.6545 115.609 15.9609L113.592 15.9758C113.622 15.8473 113.647 15.6891 113.667 15.5013C113.696 15.3134 113.711 15.1602 113.711 15.0416C113.711 14.4979 113.582 14.0431 113.325 13.6774C113.068 13.3017 112.732 13.02 112.317 12.8322C111.912 12.6344 111.472 12.5356 110.997 12.5356C110.355 12.5356 109.772 12.6542 109.248 12.8915C108.734 13.1287 108.289 13.4648 107.913 13.8998C107.547 14.3249 107.266 14.8241 107.068 15.3975C106.87 15.9708 106.771 16.5837 106.771 17.2362C106.771 18.1753 107.014 18.892 107.498 19.3863C107.992 19.8707 108.625 20.1129 109.396 20.1129C109.95 20.1129 110.508 19.9794 111.072 19.7125C111.635 19.4456 112.129 19.065 112.554 18.5707C112.979 18.0666 113.266 17.4685 113.414 16.7765L115.476 16.8951C115.169 18.3285 114.591 19.6285 113.741 20.795C112.89 21.9615 111.877 22.8907 110.701 23.5827C109.534 24.2747 108.318 24.6207 107.053 24.6207ZM111.828 24.25L116.751 1.07325H122.059L117.122 24.25H111.828Z" fill="#2D3748"/>
<path d="M0 20.2018V14.1353C0 13.7957 0.367661 13.5834 0.661791 13.7532L11.5814 20.0576C11.8755 20.2274 12.2431 20.0152 12.2431 19.6755V14.8079C12.2431 14.468 12.6114 14.2558 12.9055 14.4262L23.421 20.5193C23.7063 20.6846 23.716 21.0931 23.4389 21.2718L12.4846 28.3358C12.3378 28.4304 12.149 28.4296 12.0031 28.3336L0.198768 20.5704C0.0746996 20.4888 0 20.3503 0 20.2018Z" fill="url(#paint0_linear_843_1004)"/>
<path d="M24.4863 8.20439V14.2709C24.4863 14.6105 24.1186 14.8228 23.8245 14.653L12.9049 8.34858C12.6108 8.17876 12.2431 8.39103 12.2431 8.73067V13.5983C12.2431 13.9382 11.8749 14.1504 11.5808 13.98L1.06528 7.88692C0.779965 7.7216 0.770242 7.31311 1.04738 7.1344L12.0017 0.0704097C12.1485 -0.0242485 12.3373 -0.0234003 12.4832 0.0725724L24.2875 7.83577C24.4116 7.91737 24.4863 8.0559 24.4863 8.20439Z" fill="url(#paint1_linear_843_1004)"/>
<path d="M12.2431 15.7977C12.1328 14.1432 12.0225 14.2535 11.1402 13.702L12.2431 12.9299C12.2431 13.8123 12.0225 14.0329 13.5667 14.805L12.2431 15.7977Z" fill="url(#paint2_linear_843_1004)"/>
<defs>
<linearGradient id="paint0_linear_843_1004" x1="12.2431" y1="0" x2="12.2431" y2="28.4062" gradientUnits="userSpaceOnUse">
<stop stop-color="#479CFF"/>
<stop offset="1" stop-color="#AF5BFF"/>
</linearGradient>
<linearGradient id="paint1_linear_843_1004" x1="12.2431" y1="0" x2="12.2431" y2="28.4062" gradientUnits="userSpaceOnUse">
<stop stop-color="#479CFF"/>
<stop offset="1" stop-color="#AF5BFF"/>
</linearGradient>
<linearGradient id="paint2_linear_843_1004" x1="12.2431" y1="0" x2="12.2431" y2="28.4062" gradientUnits="userSpaceOnUse">
<stop stop-color="#479CFF"/>
<stop offset="1" stop-color="#AF5BFF"/>
</linearGradient>
</defs>
</svg>
