<svg width="88" height="23" viewBox="0 0 88 23" fill="none" xmlns="http://www.w3.org/2000/svg">
<path d="M27.9545 18.1652C27.3646 18.1652 26.7818 18.0977 26.2061 17.9626C25.6304 17.8276 25.108 17.6286 24.6389 17.3656C24.1698 17.1026 23.7931 16.7757 23.5088 16.3848C23.2316 15.9868 23.093 15.5248 23.093 14.9988C23.093 14.8496 23.1037 14.7039 23.125 14.5617C23.1534 14.4125 23.1783 14.2987 23.1996 14.2206H26.9737C26.9595 14.2632 26.9453 14.3165 26.9311 14.3805C26.924 14.4444 26.9204 14.5013 26.9204 14.5511C26.9204 14.8354 27.0554 15.0415 27.3255 15.1694C27.6027 15.2902 27.983 15.3507 28.4663 15.3507C28.7292 15.3507 29.0029 15.3222 29.2872 15.2654C29.5715 15.2014 29.8096 15.0983 30.0015 14.9562C30.2005 14.8069 30.3 14.6044 30.3 14.3485C30.3 14.114 30.1223 13.9363 29.7669 13.8154C29.4116 13.6946 28.8643 13.5738 28.1251 13.453C27.5068 13.3463 26.8955 13.19 26.2914 12.9839C25.6944 12.7706 25.2004 12.4579 24.8095 12.0457C24.4186 11.6263 24.2231 11.0684 24.2231 10.3719C24.2231 9.68244 24.3866 9.08541 24.7135 8.58078C25.0405 8.07615 25.4811 7.66036 26.0355 7.33342C26.597 6.99937 27.2296 6.75416 27.9332 6.5978C28.6369 6.43432 29.3618 6.35259 30.1081 6.35259C30.9112 6.35259 31.6682 6.48408 32.3789 6.74705C33.0897 7.00292 33.6689 7.36896 34.1167 7.84516C34.5645 8.32136 34.7884 8.8864 34.7884 9.54029C34.7884 9.68244 34.7777 9.82104 34.7564 9.95608C34.7351 10.0911 34.7137 10.1977 34.6924 10.2759H30.961C30.9823 10.2333 30.9965 10.1871 31.0036 10.1373C31.0107 10.0876 31.0143 10.0307 31.0143 9.96674C31.0143 9.76773 30.9468 9.61137 30.8117 9.49765C30.6838 9.37682 30.5203 9.28797 30.3213 9.23112C30.1223 9.16715 29.9126 9.13516 29.6923 9.13516C29.472 9.13516 29.2268 9.16359 28.9567 9.22045C28.6866 9.27021 28.4556 9.35905 28.2637 9.48698C28.0718 9.61492 27.9759 9.79261 27.9759 10.02C27.9759 10.2688 28.1429 10.4607 28.4769 10.5958C28.811 10.7237 29.2801 10.8374 29.8842 10.9369C30.2751 11.0009 30.7087 11.0897 31.1849 11.2034C31.6611 11.3172 32.1124 11.4842 32.5389 11.7045C32.9724 11.9248 33.3278 12.2127 33.605 12.5681C33.8822 12.9163 34.0208 13.3641 34.0208 13.9114C34.0208 14.6435 33.8466 15.276 33.4984 15.8091C33.1572 16.3421 32.6988 16.7828 32.1231 17.1311C31.5474 17.4793 30.897 17.7388 30.1721 17.9093C29.4542 18.0799 28.715 18.1652 27.9545 18.1652ZM39.9992 18.1652C38.2437 18.1652 36.9075 17.7139 35.9906 16.8112C35.0737 15.9086 34.6153 14.7287 34.6153 13.2717C34.6153 12.1985 34.8001 11.2354 35.1697 10.3825C35.5393 9.52963 36.0581 8.80467 36.7262 8.20764C37.3943 7.6035 38.1832 7.14507 39.093 6.83234C40.0099 6.51251 41.0191 6.35259 42.1208 6.35259C43.2722 6.35259 44.2282 6.5587 44.9887 6.97094C45.7563 7.37606 46.332 7.89136 46.7158 8.51681C47.0996 9.14227 47.2915 9.7855 47.2915 10.4465C47.2915 10.5815 47.2844 10.7059 47.2702 10.8196C47.2559 10.9334 47.2417 11.0222 47.2275 11.0862H43.4641C43.4712 11.0435 43.4748 11.0044 43.4748 10.9689C43.4748 10.9334 43.4748 10.8907 43.4748 10.841C43.4748 10.5993 43.4215 10.3648 43.3148 10.1373C43.2082 9.90988 43.0234 9.72153 42.7605 9.57227C42.4975 9.41591 42.1243 9.33773 41.641 9.33773C41.1577 9.33773 40.7171 9.43723 40.319 9.63624C39.9281 9.83525 39.5941 10.1124 39.3169 10.4678C39.0397 10.8161 38.8265 11.2141 38.6772 11.6619C38.528 12.1025 38.4533 12.5681 38.4533 13.0585C38.4533 13.7195 38.6239 14.2383 38.9651 14.615C39.3062 14.9917 39.786 15.1801 40.4043 15.1801C40.9019 15.1801 41.3176 15.1054 41.6517 14.9562C41.9929 14.7998 42.2665 14.5937 42.4726 14.3378C42.6858 14.0749 42.8458 13.7835 42.9524 13.4636H46.7264C46.634 14.0322 46.4137 14.5937 46.0654 15.1481C45.7243 15.7025 45.2658 16.2071 44.6901 16.662C44.1144 17.1169 43.4321 17.4829 42.6432 17.7601C41.8543 18.0302 40.9729 18.1652 39.9992 18.1652ZM54.4392 17.8987L55.484 13.0052C55.5337 12.7991 55.5835 12.561 55.6332 12.2909C55.683 12.0137 55.7256 11.7472 55.7611 11.4913C55.8038 11.2283 55.8251 11.0186 55.8251 10.8623C55.8251 10.6704 55.7967 10.4927 55.7398 10.3292C55.6901 10.1657 55.6048 10.0272 55.484 9.91343C55.3702 9.79261 55.2139 9.70021 55.0149 9.63624C54.8158 9.57227 54.5671 9.54029 54.2686 9.54029C53.7711 9.54029 53.3375 9.63979 52.9679 9.8388C52.5983 10.0378 52.2962 10.3221 52.0617 10.6917C51.8343 11.0613 51.6637 11.502 51.55 12.0137L50.8037 11.2567C51.0169 10.2688 51.4007 9.4088 51.9551 8.67673C52.5095 7.93755 53.1847 7.3654 53.9807 6.96028C54.7768 6.55515 55.6439 6.35259 56.5821 6.35259C57.2573 6.35259 57.8117 6.44498 58.2452 6.62978C58.6788 6.80747 59.0164 7.04557 59.258 7.34408C59.4997 7.63549 59.6667 7.95888 59.7591 8.31425C59.8586 8.66252 59.9084 9.00368 59.9084 9.33773C59.9084 9.72864 59.855 10.2013 59.7484 10.7557C59.6489 11.3101 59.5068 12.0101 59.322 12.8559L58.2345 17.8987H54.4392ZM46.5179 17.8987L50.0574 1.2352H53.8528L50.3133 17.8987H46.5179ZM61.8972 13.325L62.3876 10.9476H69.4773L69.0722 11.502C69.1148 11.3598 69.1432 11.2283 69.1575 11.1075C69.1788 10.9796 69.1894 10.8552 69.1894 10.7343C69.1894 10.4572 69.1219 10.1942 68.9869 9.94542C68.8518 9.69665 68.6351 9.49409 68.3365 9.33773C68.038 9.18136 67.64 9.10318 67.1425 9.10318C66.5739 9.10318 66.0693 9.20979 65.6286 9.42302C65.195 9.63624 64.8326 9.93476 64.5412 10.3186C64.2497 10.7024 64.0259 11.1501 63.8695 11.6619C63.7202 12.1665 63.6456 12.7173 63.6456 13.3144C63.6456 13.7408 63.7167 14.1104 63.8588 14.4231C64.001 14.7287 64.232 14.9633 64.5518 15.1268C64.8788 15.2902 65.3159 15.372 65.8631 15.372C66.2612 15.372 66.6059 15.34 66.8973 15.276C67.1958 15.2121 67.4481 15.1303 67.6542 15.0308C67.8603 14.9242 68.0238 14.8105 68.1446 14.6897C68.2655 14.5617 68.3437 14.4373 68.3792 14.3165H72.1426C72.0004 14.8069 71.7517 15.2831 71.3963 15.7451C71.0409 16.2 70.5825 16.6122 70.021 16.9818C69.4595 17.3443 68.795 17.6322 68.0274 17.8454C67.2669 18.0586 66.4069 18.1652 65.4474 18.1652C64.2959 18.1652 63.3151 17.9591 62.5049 17.5469C61.6946 17.1275 61.0763 16.5518 60.6498 15.8197C60.2234 15.0806 60.0101 14.2312 60.0101 13.2717C60.0101 12.2625 60.1985 11.3349 60.5752 10.4891C60.9519 9.64335 61.4778 8.91128 62.153 8.29293C62.8282 7.67458 63.6136 7.19838 64.5092 6.86433C65.4047 6.52317 66.3642 6.35259 67.3877 6.35259C68.5249 6.35259 69.4986 6.54804 70.3089 6.93895C71.1191 7.32987 71.741 7.88069 72.1746 8.59144C72.6081 9.30219 72.8249 10.1444 72.8249 11.1181C72.8249 11.4522 72.7929 11.8289 72.729 12.2482C72.665 12.6676 72.5797 13.0265 72.4731 13.325H61.8972ZM76.9688 18.1652C75.7037 18.1652 74.6944 17.7672 73.941 16.9712C73.1947 16.168 72.8216 15.0166 72.8216 13.5169C72.8216 12.5432 72.9851 11.6263 73.312 10.7663C73.646 9.89922 74.108 9.13516 74.698 8.47417C75.295 7.81317 75.9915 7.29433 76.7876 6.91763C77.5836 6.54094 78.4543 6.35259 79.3996 6.35259C80.1743 6.35259 80.853 6.52672 81.4358 6.87499C82.0258 7.22325 82.4842 7.70301 82.8111 8.31425C83.1452 8.92549 83.3122 9.63269 83.3122 10.4358C83.3122 10.6491 83.2944 10.8978 83.2589 11.1821C83.2234 11.4664 83.1772 11.7187 83.1203 11.9391L81.6704 11.9497C81.6917 11.8573 81.7095 11.7436 81.7237 11.6086C81.745 11.4735 81.7557 11.3634 81.7557 11.2781C81.7557 10.8872 81.6633 10.5602 81.4785 10.2972C81.2937 10.0272 81.052 9.82459 80.7535 9.68955C80.4621 9.5474 80.1458 9.47632 79.8047 9.47632C79.3427 9.47632 78.9233 9.56161 78.5467 9.73219C78.1771 9.90277 77.8572 10.1444 77.5871 10.4572C77.3242 10.7628 77.1216 11.1217 76.9795 11.5339C76.8373 11.9462 76.7662 12.3868 76.7662 12.8559C76.7662 13.5311 76.9404 14.0464 77.2886 14.4018C77.644 14.7501 78.0989 14.9242 78.6533 14.9242C79.0513 14.9242 79.4529 14.8283 79.858 14.6364C80.2631 14.4444 80.6185 14.1708 80.9241 13.8154C81.2297 13.453 81.4358 13.023 81.5425 12.5254L83.0244 12.6107C82.804 13.6413 82.3882 14.5759 81.777 15.4146C81.1658 16.2533 80.4372 16.9214 79.5915 17.4189C78.7528 17.9165 77.8786 18.1652 76.9688 18.1652ZM80.4017 17.8987L83.9412 1.2352H87.7579L84.2078 17.8987H80.4017Z" fill="#2D3748"/>
<path d="M0 14.5246V10.1629C0 9.91872 0.264339 9.7661 0.47581 9.8882L8.32669 14.4209C8.53817 14.543 8.8025 14.3904 8.8025 14.1462V10.6465C8.8025 10.4021 9.06728 10.2495 9.27875 10.3721L16.8391 14.7528C17.0442 14.8717 17.0512 15.1654 16.852 15.2939L8.97612 20.3727C8.87058 20.4408 8.73483 20.4401 8.62991 20.3711L0.142909 14.7896C0.0537071 14.7309 0 14.6313 0 14.5246Z" fill="#2D3748"/>
<path d="M17.605 5.89875V10.2604C17.605 10.5046 17.3407 10.6572 17.1292 10.5351L9.27832 6.00241C9.06684 5.88032 8.8025 6.03294 8.8025 6.27712V9.7768C8.8025 10.0212 8.53773 10.1738 8.32626 10.0513L0.765912 5.67049C0.560775 5.55163 0.553784 5.25794 0.753036 5.12945L8.62889 0.0506228C8.73443 -0.0174341 8.87018 -0.0168242 8.9751 0.0521777L17.4621 5.63372C17.5513 5.69238 17.605 5.79198 17.605 5.89875Z" fill="#2D3748"/>
<path d="M8.8025 11.3581C8.7232 10.1686 8.6439 10.2479 8.00949 9.85139L8.8025 9.29628C8.8025 9.9307 8.6439 10.0893 9.75413 10.6444L8.8025 11.3581Z" fill="#2D3748"/>
</svg>
