<svg width="379" height="98" viewBox="0 0 379 98" fill="none" xmlns="http://www.w3.org/2000/svg">
<path d="M120.589 78.027C118.044 78.027 115.53 77.7357 113.047 77.1531C110.563 76.5706 108.309 75.7121 106.286 74.5776C104.262 73.4432 102.637 72.0327 101.411 70.3464C100.215 68.6294 99.617 66.6364 99.617 64.3675C99.617 63.7236 99.663 63.095 99.755 62.4818C99.8777 61.8379 99.985 61.3474 100.077 61.0101H116.358C116.297 61.1941 116.235 61.424 116.174 61.7C116.143 61.9759 116.128 62.2212 116.128 62.4358C116.128 63.6623 116.711 64.5514 117.876 65.1033C119.072 65.6246 120.712 65.8852 122.797 65.8852C123.931 65.8852 125.112 65.7626 126.338 65.5173C127.565 65.2413 128.592 64.7967 129.42 64.1835C130.278 63.5396 130.707 62.6658 130.707 61.562C130.707 60.5502 129.941 59.7836 128.408 59.2624C126.875 58.7412 124.514 58.2199 121.325 57.6987C118.658 57.2388 116.021 56.5642 113.415 55.6751C110.839 54.7552 108.708 53.4061 107.022 51.6278C105.335 49.8188 104.492 47.4119 104.492 44.4071C104.492 41.433 105.197 38.8575 106.608 36.6805C108.018 34.5036 109.919 32.7099 112.311 31.2995C114.733 29.8584 117.462 28.8006 120.497 28.1261C123.533 27.4209 126.66 27.0683 129.88 27.0683C133.344 27.0683 136.61 27.6355 139.676 28.77C142.742 29.8738 145.241 31.4528 147.172 33.5071C149.104 35.5614 150.07 37.999 150.07 40.8198C150.07 41.433 150.024 42.0309 149.932 42.6134C149.84 43.196 149.748 43.6559 149.656 43.9932H133.559C133.651 43.8092 133.712 43.6099 133.743 43.3953C133.773 43.1807 133.789 42.9354 133.789 42.6594C133.789 41.8009 133.498 41.1264 132.915 40.6358C132.363 40.1146 131.658 39.7313 130.799 39.486C129.941 39.2101 129.036 39.0721 128.086 39.0721C127.135 39.0721 126.078 39.1947 124.912 39.44C123.747 39.6547 122.751 40.0379 121.923 40.5898C121.095 41.1417 120.681 41.9082 120.681 42.8894C120.681 43.9625 121.402 44.7904 122.843 45.3729C124.284 45.9248 126.308 46.4154 128.914 46.8447C130.6 47.1206 132.47 47.5039 134.525 47.9945C136.579 48.485 138.526 49.2056 140.366 50.1561C142.236 51.1066 143.769 52.3483 144.965 53.8814C146.161 55.3838 146.758 57.3154 146.758 59.6763C146.758 62.8344 146.007 65.5633 144.505 67.8628C143.033 70.1624 141.055 72.0634 138.572 73.5658C136.088 75.0682 133.283 76.1873 130.155 76.9232C127.059 77.6591 123.87 78.027 120.589 78.027ZM172.549 78.027C164.976 78.027 159.211 76.08 155.256 72.1861C151.301 68.2921 149.323 63.2024 149.323 56.9168C149.323 52.287 150.12 48.1324 151.715 44.4531C153.309 40.7738 155.547 37.6464 158.43 35.0708C161.312 32.4646 164.715 30.487 168.64 29.1379C172.595 27.7582 176.949 27.0683 181.701 27.0683C186.668 27.0683 190.792 27.9574 194.073 29.7358C197.384 31.4835 199.868 33.7064 201.524 36.4046C203.179 39.1028 204.007 41.8776 204.007 44.7291C204.007 45.3116 203.977 45.8482 203.915 46.3388C203.854 46.8293 203.793 47.2126 203.731 47.4886H187.496C187.527 47.3046 187.542 47.136 187.542 46.9826C187.542 46.8293 187.542 46.6454 187.542 46.4307C187.542 45.3883 187.312 44.3765 186.852 43.3953C186.392 42.4141 185.595 41.6016 184.461 40.9577C183.326 40.2832 181.717 39.9459 179.632 39.9459C177.547 39.9459 175.646 40.3752 173.929 41.2337C172.242 42.0922 170.801 43.288 169.606 44.821C168.41 46.3234 167.49 48.0405 166.846 49.9721C166.202 51.8731 165.88 53.8814 165.88 55.997C165.88 58.8485 166.616 61.0867 168.088 62.7118C169.56 64.3368 171.629 65.1493 174.297 65.1493C176.443 65.1493 178.237 64.8274 179.678 64.1835C181.149 63.509 182.33 62.6198 183.219 61.516C184.139 60.3815 184.829 59.1244 185.289 57.7447H201.57C201.171 60.1976 200.221 62.6198 198.718 65.0114C197.246 67.4029 195.269 69.5799 192.785 71.5422C190.302 73.5045 187.358 75.0835 183.955 76.2793C180.552 77.4444 176.75 78.027 172.549 78.027ZM234.842 76.8772L239.349 55.767C239.564 54.8779 239.778 53.8507 239.993 52.6856C240.207 51.4898 240.391 50.34 240.545 49.2362C240.729 48.1018 240.821 47.1973 240.821 46.5227C240.821 45.6949 240.698 44.9284 240.453 44.2232C240.238 43.5179 239.87 42.9201 239.349 42.4295C238.858 41.9082 238.184 41.5096 237.325 41.2337C236.467 40.9577 235.394 40.8198 234.106 40.8198C231.96 40.8198 230.089 41.249 228.495 42.1075C226.901 42.966 225.597 44.1925 224.586 45.7869C223.604 47.3812 222.869 49.2822 222.378 51.4898L219.159 48.2244C220.078 43.9625 221.734 40.2525 224.126 37.0945C226.517 33.9057 229.43 31.4375 232.864 29.6898C236.298 27.9421 240.039 27.0683 244.086 27.0683C246.999 27.0683 249.39 27.4669 251.261 28.2641C253.131 29.0306 254.587 30.0577 255.63 31.3455C256.672 32.6026 257.393 33.9977 257.792 35.5307C258.221 37.0331 258.435 38.5049 258.435 39.9459C258.435 41.6323 258.205 43.6713 257.746 46.0628C257.316 48.4544 256.703 51.4745 255.906 55.1232L251.215 76.8772H234.842ZM200.67 76.8772L215.939 4.9923H232.312L217.043 76.8772H200.67ZM267.015 57.1468L269.131 46.8907H299.715L297.967 49.2822C298.151 48.669 298.274 48.1018 298.335 47.5805C298.427 47.0286 298.473 46.4921 298.473 45.9708C298.473 44.7751 298.182 43.6406 297.599 42.5675C297.017 41.4943 296.082 40.6205 294.794 39.9459C293.506 39.2714 291.789 38.9341 289.643 38.9341C287.19 38.9341 285.013 39.394 283.112 40.3139C281.242 41.2337 279.678 42.5215 278.421 44.1772C277.164 45.8329 276.198 47.7645 275.523 49.9721C274.88 52.149 274.558 54.5253 274.558 57.1008C274.558 58.9405 274.864 60.5348 275.477 61.8839C276.091 63.2024 277.087 64.2142 278.467 64.9194C279.877 65.6246 281.763 65.9772 284.124 65.9772C285.841 65.9772 287.328 65.8392 288.585 65.5633C289.873 65.2873 290.961 64.9347 291.85 64.5055C292.74 64.0455 293.445 63.555 293.966 63.0337C294.487 62.4818 294.825 61.9453 294.978 61.424H311.213C310.6 63.5396 309.527 65.5939 307.994 67.5869C306.46 69.5492 304.483 71.3275 302.061 72.9219C299.638 74.4856 296.772 75.7274 293.46 76.6472C290.179 77.5671 286.469 78.027 282.33 78.027C277.363 78.027 273.132 77.1378 269.637 75.3595C266.141 73.5505 263.474 71.0669 261.634 67.9088C259.794 64.7201 258.875 61.0561 258.875 56.9168C258.875 52.563 259.687 48.5617 261.312 44.913C262.937 41.2644 265.206 38.1063 268.119 35.4388C271.032 32.7712 274.42 30.7169 278.283 29.2759C282.146 27.8041 286.286 27.0683 290.701 27.0683C295.606 27.0683 299.807 27.9115 303.302 29.5978C306.798 31.2842 309.481 33.6604 311.351 36.7265C313.221 39.7926 314.156 43.426 314.156 47.6265C314.156 49.0676 314.018 50.6926 313.743 52.5016C313.467 54.3106 313.099 55.859 312.639 57.1468H267.015ZM332.033 78.027C326.575 78.027 322.221 76.31 318.971 72.8759C315.752 69.4112 314.142 64.4441 314.142 57.9746C314.142 53.7741 314.847 49.8188 316.258 46.1088C317.699 42.3682 319.692 39.0721 322.237 36.2206C324.812 33.3691 327.817 31.1309 331.251 29.5058C334.685 27.8808 338.441 27.0683 342.519 27.0683C345.861 27.0683 348.789 27.8195 351.303 29.3219C353.848 30.8243 355.826 32.8939 357.236 35.5307C358.677 38.1676 359.398 41.2184 359.398 44.6831C359.398 45.6029 359.321 46.676 359.168 47.9025C359.015 49.1289 358.815 50.2174 358.57 51.1679L352.315 51.2139C352.407 50.8153 352.484 50.3247 352.545 49.7421C352.637 49.1596 352.683 48.6843 352.683 48.3164C352.683 46.63 352.284 45.2196 351.487 44.0852C350.69 42.9201 349.648 42.0462 348.36 41.4637C347.103 40.8504 345.738 40.5438 344.267 40.5438C342.274 40.5438 340.465 40.9118 338.84 41.6476C337.245 42.3835 335.865 43.426 334.7 44.7751C333.566 46.0935 332.692 47.6419 332.079 49.4202C331.466 51.1985 331.159 53.0995 331.159 55.1232C331.159 58.036 331.91 60.2589 333.413 61.7919C334.946 63.2943 336.908 64.0455 339.299 64.0455C341.016 64.0455 342.749 63.6316 344.497 62.8038C346.244 61.9759 347.777 60.7955 349.096 59.2624C350.414 57.6987 351.303 55.8437 351.763 53.6974L358.156 54.0654C357.206 58.5112 355.412 62.5431 352.775 66.1612C350.138 69.7792 346.995 72.6613 343.347 74.8076C339.729 76.9538 335.957 78.027 332.033 78.027ZM346.842 76.8772L362.111 4.9923H378.576L363.261 76.8772H346.842Z" fill="white"/>
<path d="M0 62.6578V43.842C0 42.7886 1.14034 42.1302 2.05261 42.6569L35.9207 62.2106C36.833 62.7373 37.9733 62.0789 37.9733 61.0255V45.9282C37.9733 44.8739 39.1155 44.2156 40.0278 44.7442L72.6425 63.6425C73.5274 64.1553 73.5576 65.4222 72.698 65.9765L38.7222 87.8862C38.267 88.1797 37.6813 88.1771 37.2287 87.8794L0.616497 63.8011C0.231688 63.5481 0 63.1184 0 62.6578Z" fill="white"/>
<path d="M75.9466 25.4467V44.2626C75.9466 45.316 74.8062 45.9744 73.894 45.4477L40.0259 25.8939C39.1136 25.3672 37.9733 26.0256 37.9733 27.079V42.1763C37.9733 43.2307 36.8311 43.8889 35.9188 43.3603L3.30408 24.462C2.41914 23.9493 2.38898 22.6823 3.24854 22.128L37.2243 0.218383C37.6796 -0.0752092 38.2652 -0.0725783 38.7179 0.22509L75.3301 24.3034C75.7149 24.5565 75.9466 24.9861 75.9466 25.4467Z" fill="white"/>
<path d="M37.9733 48.998C37.6312 43.8665 37.2891 44.2086 34.5523 42.4981L37.9733 40.1034C37.9733 42.8402 37.2891 43.5244 42.0785 45.9191L37.9733 48.998Z" fill="white"/>
</svg>
