<svg width="33" height="33" viewBox="0 0 33 33" fill="none" xmlns="http://www.w3.org/2000/svg">
<path d="M24.3755 24.952C26.4589 26.6481 27.6928 28.2743 27.6928 31.1539M7.93314 24.952C5.84973 26.6481 4.61584 28.2736 4.61584 31.1539M25.3851 12.6924C27.4685 10.9962 27.6928 8.64885 27.6928 5.76929M6.92353 12.5481C4.84011 10.852 4.61584 8.64958 4.61584 5.76929M31.1543 18.471H25.3851M6.92353 18.471H1.1543M16.1543 11.5385V30.0001" stroke="#B2484D" stroke-width="2.30769" stroke-linecap="round" stroke-linejoin="round"/>
<path d="M16.1546 29.9999C11.0777 29.9999 6.92383 25.8461 6.92383 20.7692V13.841C6.92383 9.1485 11.0777 6.91797 16.1546 6.91797C21.2315 6.91797 25.3854 8.76412 25.3854 13.841V20.7692C25.3854 25.8461 21.2315 29.9999 16.1546 29.9999Z" stroke="#B2484D" stroke-width="2.30769" stroke-linecap="round" stroke-linejoin="round"/>
<path d="M10.6321 8.04227C10.4878 7.68034 10.4042 7.29706 10.3848 6.9079C10.3888 5.38305 10.9963 3.92179 12.0745 2.84356C13.1527 1.76532 14.614 1.15781 16.1389 1.15381H16.1691C17.694 1.15781 19.1552 1.76532 20.2335 2.84356C21.3117 3.92179 21.9192 5.38305 21.9232 6.9079C21.9093 7.26218 21.8331 7.61125 21.6982 7.93914" stroke="#B2484D" stroke-width="2.30769" stroke-linecap="round" stroke-linejoin="round"/>
</svg>
