<svg width="14" height="24" viewBox="0 0 14 24" fill="none" xmlns="http://www.w3.org/2000/svg">
<path d="M2.1268 9.09351H6.82013V21.7068M1.4668 22.0002H11.5868" stroke="#4B7791" stroke-width="2.93333" stroke-miterlimit="10" stroke-linecap="square"/>
<path d="M6.07617 0.0810547C6.52411 -0.00795291 6.98821 0.0381232 7.41016 0.212891C7.83225 0.387729 8.19344 0.683599 8.44727 1.06348C8.701 1.44331 8.83594 1.88989 8.83594 2.34668C8.83593 2.95933 8.59336 3.54726 8.16016 3.98047C7.72695 4.41368 7.13901 4.65625 6.52637 4.65625C6.06958 4.65625 5.62299 4.52131 5.24316 4.26758C4.86329 4.01375 4.56742 3.65257 4.39258 3.23047C4.21781 2.80852 4.17173 2.34443 4.26074 1.89648C4.34987 1.44839 4.56952 1.03595 4.89258 0.712891C5.21564 0.389831 5.62808 0.170187 6.07617 0.0810547Z" fill="#4B7791" stroke="#4B7791" stroke-width="0.0733333"/>
</svg>
