<svg width="31" height="30" viewBox="0 0 31 30" fill="none" xmlns="http://www.w3.org/2000/svg">
<path d="M3.40506 28.1353H27.5922C27.9851 28.1352 28.3712 28.0332 28.7128 27.8393C29.0544 27.6453 29.3399 27.3661 29.5413 27.0288C29.7428 26.6915 29.8532 26.3078 29.862 25.915C29.8707 25.5223 29.7774 25.134 29.5912 24.7881L17.4983 2.3295C16.6404 0.737172 14.3569 0.737172 13.499 2.3295L1.40613 24.7881C1.2199 25.134 1.12659 25.5223 1.13533 25.915C1.14406 26.3078 1.25453 26.6915 1.45595 27.0288C1.65737 27.3661 1.94285 27.6453 2.28448 27.8393C2.62611 28.0332 3.01222 28.1352 3.40506 28.1353Z" stroke="#99753D" stroke-width="2.2707" stroke-linecap="round" stroke-linejoin="round"/>
<path d="M15.0921 10.3343L15.4994 18.9914L15.906 10.3379C15.9085 10.2826 15.8997 10.2273 15.8801 10.1755C15.8606 10.1237 15.8306 10.0764 15.7922 10.0366C15.7537 9.99673 15.7075 9.96514 15.6565 9.94375C15.6054 9.92235 15.5505 9.91159 15.4951 9.91213C15.4407 9.91266 15.387 9.92409 15.337 9.94574C15.2871 9.96738 15.2421 9.99881 15.2045 10.0382C15.1669 10.0775 15.1376 10.124 15.1183 10.1749C15.099 10.2257 15.0901 10.28 15.0921 10.3343Z" stroke="#99753D" stroke-width="2.2707" stroke-linecap="round" stroke-linejoin="round"/>
<path d="M15.4993 24.6582C15.2186 24.6582 14.9442 24.575 14.7108 24.419C14.4774 24.2631 14.2955 24.0414 14.1881 23.7821C14.0807 23.5228 14.0526 23.2374 14.1073 22.9621C14.1621 22.6868 14.2973 22.434 14.4957 22.2355C14.6942 22.037 14.9471 21.9019 15.2224 21.8471C15.4977 21.7923 15.783 21.8204 16.0424 21.9279C16.3017 22.0353 16.5233 22.2172 16.6793 22.4506C16.8352 22.6839 16.9184 22.9583 16.9184 23.239C16.9184 23.6154 16.7689 23.9764 16.5028 24.2425C16.2366 24.5087 15.8757 24.6582 15.4993 24.6582Z" fill="#99753D"/>
</svg>
