<svg width="13" height="15" viewBox="0 0 13 15" fill="none" xmlns="http://www.w3.org/2000/svg">
<path d="M6.3057 14.413C7.29997 14.413 8.10647 13.6065 8.10647 12.6114H4.50492C4.50492 13.6065 5.31143 14.413 6.3057 14.413ZM12.369 10.1986C11.8251 9.61419 10.8075 8.73505 10.8075 5.85527C10.8075 3.66799 9.27387 1.91704 7.20594 1.48746V0.900811C7.20594 0.403394 6.80283 0 6.3057 0C5.80856 0 5.40545 0.403394 5.40545 0.900811V1.48746C3.33752 1.91704 1.80389 3.66799 1.80389 5.85527C1.80389 8.73505 0.786259 9.61419 0.242394 10.1986C0.0734919 10.3802 -0.00138805 10.5972 1.94628e-05 10.8097C0.003116 11.2714 0.365411 11.7105 0.903645 11.7105H11.7077C12.246 11.7105 12.6086 11.2714 12.6114 10.8097C12.6128 10.5972 12.5379 10.3799 12.369 10.1986Z" fill="#499BFF"/>
</svg>
