<svg width="15" height="16" viewBox="0 0 15 16" fill="none" xmlns="http://www.w3.org/2000/svg">
<path d="M14.0011 3.7167C14.0227 3.70415 14.0405 3.68617 14.0529 3.66457C14.0653 3.64297 14.0718 3.61849 14.0718 3.59358C14.0718 3.56867 14.0653 3.54419 14.0529 3.52259C14.0405 3.50099 14.0227 3.48301 14.0011 3.47046L8.55819 0.308178C8.20992 0.106311 7.81452 0 7.41198 0C7.00944 0 6.61403 0.106311 6.26577 0.308178L0.823892 3.47046C0.802375 3.48301 0.784523 3.50099 0.772116 3.52259C0.759709 3.54419 0.75318 3.56867 0.75318 3.59358C0.75318 3.61849 0.759709 3.64297 0.772116 3.66457C0.784523 3.68617 0.802375 3.70415 0.823892 3.7167L7.34089 7.55035C7.36281 7.56326 7.38778 7.57007 7.41323 7.57007C7.43867 7.57007 7.46364 7.56326 7.48557 7.55035L14.0011 3.7167ZM0.213815 4.68634C0.192078 4.67379 0.167413 4.6672 0.142313 4.66724C0.117213 4.66728 0.0925687 4.67395 0.0708721 4.68657C0.0491756 4.69919 0.0311963 4.71731 0.0187521 4.73911C0.00630793 4.76091 -0.000159817 4.7856 2.99975e-06 4.8107V11.0073C0.000540988 11.306 0.079245 11.5992 0.228288 11.858C0.37733 12.1167 0.591518 12.332 0.84955 12.4823L6.62818 15.9471C6.64984 15.9596 6.6744 15.9662 6.69941 15.9662C6.72442 15.9662 6.74899 15.9596 6.77066 15.9471C6.79232 15.9347 6.81032 15.9167 6.82284 15.895C6.83536 15.8734 6.84197 15.8488 6.84199 15.8238V8.63438C6.84197 8.60938 6.83537 8.58483 6.82286 8.56319C6.81035 8.54155 6.79237 8.52358 6.77072 8.51108L0.213815 4.68634ZM7.98232 8.65932V15.822C7.98235 15.847 7.98895 15.8716 8.00147 15.8932C8.014 15.9149 8.03199 15.9329 8.05366 15.9454C8.07532 15.9579 8.09989 15.9644 8.1249 15.9644C8.14991 15.9644 8.17448 15.9578 8.19613 15.9453L13.9744 12.4805C14.2322 12.3304 14.4463 12.1155 14.5954 11.857C14.7445 11.5986 14.8234 11.3057 14.8243 11.0073V4.8107C14.8242 4.78573 14.8176 4.76121 14.805 4.73961C14.7925 4.71801 14.7745 4.70009 14.7528 4.68764C14.7312 4.67519 14.7066 4.66864 14.6816 4.66866C14.6567 4.66869 14.6321 4.67527 14.6105 4.68776L8.05359 8.53638C8.032 8.54885 8.01405 8.56676 8.00154 8.58834C7.98904 8.60991 7.98241 8.63439 7.98232 8.65932Z" fill="#499BFF"/>
</svg>
