<svg width="15" height="15" viewBox="0 0 15 15" fill="none" xmlns="http://www.w3.org/2000/svg">
<path d="M13.9933 1.12178C13.9879 1.09587 13.9753 1.07202 13.9569 1.05303C13.9384 1.03404 13.915 1.02069 13.8893 1.01455C12.1733 0.595022 8.20859 2.09004 6.06054 4.23721C5.67742 4.61723 5.32815 5.02993 5.0167 5.47061C4.35429 5.41201 3.69189 5.46094 3.12734 5.70703C1.53447 6.40811 1.0707 8.2374 0.941501 9.02431C0.934173 9.06739 0.936937 9.11157 0.949577 9.15339C0.962216 9.19521 0.984386 9.23353 1.01434 9.26534C1.0443 9.29714 1.08123 9.32156 1.12222 9.33667C1.16321 9.35179 1.20715 9.35718 1.25058 9.35244L3.80849 9.07031C3.81032 9.26316 3.82196 9.45579 3.84336 9.64746C3.85623 9.78056 3.91531 9.90495 4.01035 9.99902L5.00087 10.9872C5.09504 11.0821 5.21938 11.1412 5.35244 11.1542C5.54303 11.1755 5.73459 11.1872 5.92636 11.1891L5.6457 13.7437C5.64102 13.7872 5.64646 13.8311 5.66159 13.872C5.67673 13.913 5.70115 13.9499 5.73294 13.9798C5.76472 14.0098 5.80302 14.032 5.84481 14.0446C5.8866 14.0573 5.93076 14.0601 5.97382 14.0528C6.75927 13.9269 8.59179 13.4631 9.28876 11.8702C9.53486 11.3057 9.58525 10.6465 9.52841 9.9873C9.97016 9.67583 10.3839 9.32646 10.765 8.94316C12.9198 6.79922 14.4063 2.92295 13.9933 1.12178ZM8.61523 6.38555C8.41847 6.18892 8.28445 5.93835 8.23011 5.66554C8.17578 5.39273 8.20357 5.10993 8.30998 4.85292C8.41639 4.5959 8.59663 4.37622 8.82791 4.22166C9.05918 4.0671 9.3311 3.9846 9.60927 3.9846C9.88744 3.9846 10.1594 4.0671 10.3906 4.22166C10.6219 4.37622 10.8022 4.5959 10.9086 4.85292C11.015 5.10993 11.0428 5.39273 10.9884 5.66554C10.9341 5.93835 10.8001 6.18892 10.6033 6.38555C10.4728 6.51621 10.3179 6.61986 10.1473 6.69058C9.97676 6.76131 9.79392 6.79771 9.60927 6.79771C9.42462 6.79771 9.24179 6.76131 9.07122 6.69058C8.90065 6.61986 8.7457 6.51621 8.61523 6.38555Z" fill="#499BFF"/>
<path d="M4.93359 11.7025C4.77305 11.8634 4.51553 11.9261 4.20557 11.9797C3.50918 12.0983 2.89424 11.4966 3.01934 10.7926C3.06709 10.5257 3.2083 10.1516 3.29619 10.0637C3.3154 10.0448 3.32819 10.0204 3.33274 9.9939C3.33728 9.96738 3.33336 9.9401 3.32152 9.91594C3.30968 9.89177 3.29053 9.87196 3.26679 9.8593C3.24305 9.84664 3.21592 9.84178 3.18926 9.84541C2.79983 9.89306 2.43754 10.0696 2.16006 10.347C1.47129 11.0363 1.40625 13.5942 1.40625 13.5942C1.40625 13.5942 3.96562 13.5292 4.65439 12.8398C4.93261 12.5626 5.10939 12.1997 5.15625 11.8098C5.16709 11.6873 5.01797 11.6144 4.93359 11.7025Z" fill="#499BFF"/>
</svg>
