<svg width="22" height="22" viewBox="0 0 22 22" fill="none" xmlns="http://www.w3.org/2000/svg">
<path d="M10.5947 0C4.75286 0 0 4.75286 0 10.5947C0 16.4366 4.75286 21.1895 10.5947 21.1895C16.4366 21.1895 21.1895 16.4366 21.1895 10.5947C21.1895 4.75286 16.4366 0 10.5947 0ZM10.5947 16.295C10.3932 16.295 10.1963 16.2352 10.0288 16.1233C9.86123 16.0114 9.73065 15.8523 9.65355 15.6661C9.57644 15.48 9.55627 15.2751 9.59558 15.0775C9.63488 14.8799 9.73191 14.6984 9.87438 14.5559C10.0169 14.4135 10.1984 14.3164 10.396 14.2771C10.5936 14.2378 10.7984 14.258 10.9846 14.3351C11.1707 14.4122 11.3298 14.5428 11.4418 14.7103C11.5537 14.8778 11.6135 15.0748 11.6135 15.2763C11.6135 15.5465 11.5061 15.8056 11.3151 15.9966C11.124 16.1877 10.8649 16.295 10.5947 16.295ZM11.7011 6.04918L11.4087 12.2634C11.4087 12.4795 11.3228 12.6868 11.17 12.8397C11.0171 12.9925 10.8099 13.0784 10.5937 13.0784C10.3776 13.0784 10.1703 12.9925 10.0174 12.8397C9.86459 12.6868 9.77873 12.4795 9.77873 12.2634L9.48636 6.05224V6.04969C9.47995 5.90041 9.50382 5.75138 9.55653 5.61157C9.60924 5.47175 9.6897 5.34406 9.79306 5.23616C9.89642 5.12826 10.0206 5.0424 10.158 4.98375C10.2954 4.92509 10.4433 4.89485 10.5927 4.89485C10.7421 4.89485 10.89 4.92509 11.0274 4.98375C11.1648 5.0424 11.289 5.12826 11.3923 5.23616C11.4957 5.34406 11.5761 5.47175 11.6289 5.61157C11.6816 5.75138 11.7054 5.90041 11.699 6.04969L11.7011 6.04918Z" fill="white"/>
</svg>
