<svg width="19" height="18" viewBox="0 0 19 18" fill="none" xmlns="http://www.w3.org/2000/svg">
<path d="M8.09355 5.87756C8.09355 6.33459 8.09355 6.77756 8.2457 7.1924C6.64629 8.97131 2.42324 13.6717 2.02988 14.0303C1.9517 14.0967 1.88916 14.178 1.84633 14.2689C1.80349 14.3597 1.78132 14.4581 1.78125 14.5576C1.78125 14.8565 1.97422 15.1447 2.1375 15.3065C2.38242 15.549 3.42891 16.4666 3.62187 16.2908C4.19336 15.7635 4.3084 15.6229 4.54219 15.4049C4.89473 15.0779 4.50508 14.41 4.62754 14.1393C4.75 13.8686 4.87988 13.8158 5.09141 13.7736C5.30293 13.7315 5.67773 13.8756 5.9709 13.8791C6.27891 13.8826 6.4459 13.7596 6.67598 13.5557C6.86152 13.394 6.99512 13.2428 6.99883 13.0072C7.00625 12.6908 6.52383 12.2725 6.88379 11.9385C7.24375 11.6045 7.76328 12.1565 8.14551 12.1143C8.52773 12.0721 8.9916 11.5694 9.03984 11.3549C9.08809 11.1404 8.60566 10.5885 8.67988 10.2756C8.70586 10.1701 8.93223 9.92404 9.10293 9.88888C9.27363 9.85373 10.0307 10.1315 10.2014 10.0963C10.4092 10.0541 10.6504 9.8467 10.8471 9.73068C11.4223 9.96623 11.9455 10.0612 12.6172 10.0612C15.1592 10.0612 17.2187 8.18381 17.2187 5.87053C17.2187 3.55725 15.1592 1.68799 12.6172 1.68799C10.0752 1.68799 8.09355 3.56428 8.09355 5.87756ZM14.8437 5.06299C14.8437 5.28549 14.7741 5.503 14.6436 5.688C14.5131 5.87301 14.3277 6.0172 14.1107 6.10235C13.8937 6.1875 13.6549 6.20978 13.4246 6.16637C13.1942 6.12296 12.9826 6.01582 12.8166 5.85848C12.6505 5.70115 12.5374 5.50069 12.4916 5.28246C12.4457 5.06424 12.4693 4.83804 12.5591 4.63247C12.649 4.4269 12.8012 4.2512 12.9965 4.12758C13.1918 4.00397 13.4214 3.93799 13.6562 3.93799C13.9712 3.93799 14.2732 4.05651 14.4959 4.26749C14.7186 4.47847 14.8437 4.76462 14.8437 5.06299Z" fill="white"/>
</svg>
