<svg width="13" height="13" viewBox="0 0 13 13" fill="none" xmlns="http://www.w3.org/2000/svg">
<path d="M9.08602 2.37746L1.12591 10.3572L0.643555 11.5249L1.81126 11.0425L9.79098 3.08241L9.08602 2.37746ZM10.6787 0.785023L10.3339 1.1296L11.0388 1.83455L11.3837 1.48968C11.4742 1.39913 11.525 1.27634 11.525 1.14832C11.525 1.0203 11.4742 0.897519 11.3837 0.806961L11.3618 0.785023C11.3169 0.740172 11.2637 0.704595 11.2051 0.680321C11.1465 0.656048 11.0837 0.643555 11.0203 0.643555C10.9568 0.643555 10.894 0.656048 10.8354 0.680321C10.7768 0.704595 10.7236 0.740172 10.6787 0.785023Z" stroke="white" stroke-width="1.28705" stroke-linecap="round" stroke-linejoin="round"/>
</svg>
