<svg width="17" height="17" viewBox="0 0 17 17" fill="none" xmlns="http://www.w3.org/2000/svg">
<path d="M8.375 1.56958C4.62293 1.56958 1.57031 4.6222 1.57031 8.37427C1.57031 12.1263 4.62293 15.179 8.375 15.179C12.1271 15.179 15.1797 12.1263 15.1797 8.37427C15.1797 4.6222 12.1271 1.56958 8.375 1.56958ZM6.73206 5.39133C7.14656 4.95197 7.72986 4.7102 8.375 4.7102C9.02014 4.7102 9.59821 4.9536 10.0143 5.39525C10.436 5.84279 10.6412 6.44409 10.5927 7.09054C10.4959 8.37427 9.50137 9.42114 8.375 9.42114C7.24863 9.42114 6.25213 8.37427 6.15726 7.09021C6.10917 6.43853 6.31396 5.83527 6.73206 5.39133ZM8.375 14.1321C7.60635 14.1326 6.84543 13.9787 6.13736 13.6797C5.42928 13.3806 4.78847 12.9424 4.25293 12.391C4.55965 11.9536 4.95046 11.5817 5.40253 11.297C6.23643 10.7625 7.29181 10.468 8.375 10.468C9.45819 10.468 10.5136 10.7625 11.3465 11.297C11.7989 11.5816 12.1901 11.9535 12.4971 12.391C11.9616 12.9424 11.3208 13.3807 10.6127 13.6798C9.9046 13.9788 9.14366 14.1327 8.375 14.1321Z" fill="#2D3748"/>
</svg>
