<svg width="12" height="12" viewBox="0 0 12 12" fill="none" xmlns="http://www.w3.org/2000/svg">
<path d="M11.2964 0.457962C11.2963 0.457206 11.2963 0.456436 11.2964 0.45568C11.2749 0.361671 11.2276 0.275525 11.1598 0.206963C11.092 0.138401 11.0064 0.0901509 10.9127 0.0676564C10.1569 -0.116718 8.96798 0.0798298 7.65048 0.607338C6.32258 1.13992 5.07837 1.92611 4.2374 2.7686C3.96785 3.03672 3.71743 3.32341 3.48798 3.62656C2.92167 3.6012 2.42282 3.68185 2.00259 3.86521C0.538243 4.50963 0.120041 6.15886 0.0087059 6.836C-0.00740456 6.93221 -0.00109647 7.03084 0.0271393 7.12422C0.0553751 7.2176 0.104777 7.3032 0.1715 7.37436C0.238223 7.44553 0.320468 7.50034 0.411834 7.53452C0.503199 7.56871 0.601221 7.58135 0.698271 7.57147H0.701568L2.33279 7.39343C2.33482 7.41423 2.3371 7.43325 2.33887 7.45075C2.35982 7.64952 2.44847 7.83505 2.58995 7.97623L3.38603 8.77282C3.527 8.91449 3.71249 9.00325 3.91126 9.02414L3.96578 9.02998L3.78825 10.6592V10.6625C3.77918 10.7502 3.78852 10.8389 3.81567 10.9228C3.84282 11.0067 3.88718 11.0841 3.94592 11.1499C4.00466 11.2157 4.07649 11.2685 4.15681 11.305C4.23713 11.3415 4.32418 11.3608 4.41239 11.3617C4.44765 11.3617 4.48285 11.3588 4.51764 11.353C5.19858 11.2435 6.84704 10.8304 7.48969 9.35815C7.67153 8.94071 7.75192 8.44388 7.72935 7.87859C8.03387 7.64965 8.32161 7.3992 8.59036 7.12917C9.43818 6.28566 10.2269 5.0516 10.7539 3.74297C11.2786 2.44043 11.4762 1.24263 11.2964 0.457962ZM8.58123 4.89309C8.37284 5.10169 8.10727 5.2438 7.81811 5.30144C7.52894 5.35907 7.22918 5.32965 6.95674 5.21688C6.68431 5.10412 6.45144 4.91308 6.28759 4.66794C6.12375 4.4228 6.0363 4.13458 6.0363 3.83972C6.0363 3.54487 6.12375 3.25664 6.28759 3.0115C6.45144 2.76636 6.68431 2.57533 6.95674 2.46256C7.22918 2.3498 7.52894 2.32037 7.81811 2.37801C8.10727 2.43565 8.37284 2.57775 8.58123 2.78635C8.7209 2.92393 8.83182 3.08791 8.90753 3.26875C8.98324 3.44959 9.02222 3.64368 9.02222 3.83972C9.02222 4.03577 8.98324 4.22986 8.90753 4.4107C8.83182 4.59154 8.7209 4.75552 8.58123 4.89309Z" fill="white"/>
<path d="M3.29478 8.98917C3.19665 8.977 3.09745 9.00108 3.01581 9.05689C2.85376 9.16772 2.69094 9.27728 2.5266 9.38405C2.19412 9.60012 1.79646 9.22072 1.99402 8.87683L2.30216 8.34424C2.34621 8.2798 2.37074 8.20402 2.3728 8.12598C2.37487 8.04795 2.35438 7.97098 2.3138 7.90429C2.27322 7.83761 2.21426 7.78405 2.144 7.75003C2.07374 7.71601 1.99516 7.70298 1.91768 7.7125C1.57569 7.75575 1.2578 7.91153 1.01407 8.1553C0.921249 8.24838 0.638981 8.5309 0.487069 9.60748C0.443829 9.91671 0.416572 10.228 0.405407 10.54C0.404018 10.5942 0.413488 10.648 0.433258 10.6985C0.453028 10.7489 0.482697 10.7949 0.520516 10.8337C0.558335 10.8725 0.603538 10.9033 0.653459 10.9243C0.70338 10.9454 0.757009 10.9562 0.811183 10.9562H0.821327C1.13361 10.9451 1.44511 10.918 1.75461 10.875C2.83169 10.7229 3.11421 10.4403 3.20704 10.3475C3.45194 10.1037 3.60735 9.78429 3.64806 9.44111C3.6611 9.33434 3.63121 9.22676 3.56497 9.14201C3.49873 9.05727 3.40154 9.0023 3.29478 8.98917Z" fill="white"/>
</svg>
