<svg width="11" height="12" viewBox="0 0 11 12" fill="none" xmlns="http://www.w3.org/2000/svg">
<path d="M9.67692 1.68294H7.15251V1.05184C7.15251 0.772874 7.04169 0.505335 6.84443 0.308077C6.64717 0.110818 6.37963 0 6.10067 0H3.99699C3.71802 0 3.45048 0.110818 3.25323 0.308077C3.05597 0.505335 2.94515 0.772874 2.94515 1.05184V1.68294H0.420736C0.30915 1.68294 0.202134 1.72727 0.123231 1.80617C0.0443275 1.88508 0 1.99209 0 2.10368C0 2.21526 0.0443275 2.32228 0.123231 2.40118C0.202134 2.48009 0.30915 2.52441 0.420736 2.52441H0.867767L1.36739 10.5426C1.40473 11.2486 1.9459 11.7806 2.6296 11.7806H7.46806C8.15517 11.7806 8.68556 11.2605 8.73027 10.5447L9.22989 2.52441H9.67692C9.78851 2.52441 9.89552 2.48009 9.97443 2.40118C10.0533 2.32228 10.0977 2.21526 10.0977 2.10368C10.0977 1.99209 10.0533 1.88508 9.97443 1.80617C9.89552 1.72727 9.78851 1.68294 9.67692 1.68294ZM3.38087 10.0977H3.36589C3.25685 10.0977 3.15204 10.0555 3.07356 9.97977C2.99507 9.90408 2.94903 9.80088 2.94515 9.69191L2.73478 3.80161C2.73081 3.69002 2.77132 3.58143 2.84741 3.49971C2.92351 3.418 3.02894 3.36986 3.14053 3.36589C3.25211 3.36191 3.36071 3.40242 3.44242 3.47852C3.52414 3.55461 3.57228 3.66005 3.57625 3.77163L3.78662 9.66193C3.78863 9.71719 3.77972 9.77231 3.7604 9.82412C3.74109 9.87593 3.71175 9.92343 3.67407 9.9639C3.63639 10.0044 3.59109 10.037 3.54079 10.06C3.49048 10.0829 3.43614 10.0957 3.38087 10.0977ZM5.46956 9.67692C5.46956 9.78851 5.42524 9.89552 5.34633 9.97443C5.26743 10.0533 5.16041 10.0977 5.04883 10.0977C4.93724 10.0977 4.83023 10.0533 4.75132 9.97443C4.67242 9.89552 4.62809 9.78851 4.62809 9.67692V3.78662C4.62809 3.67503 4.67242 3.56802 4.75132 3.48912C4.83023 3.41021 4.93724 3.36589 5.04883 3.36589C5.16041 3.36589 5.26743 3.41021 5.34633 3.48912C5.42524 3.56802 5.46956 3.67503 5.46956 3.78662V9.67692ZM6.31104 1.68294H3.78662V1.05184C3.7863 1.02413 3.79153 0.996627 3.80199 0.970961C3.81245 0.945295 3.82793 0.921978 3.84753 0.90238C3.86713 0.882782 3.89044 0.867298 3.91611 0.856839C3.94178 0.846379 3.96927 0.841154 3.99699 0.841471H6.10067C6.12838 0.841154 6.15588 0.846379 6.18155 0.856839C6.20721 0.867298 6.23053 0.882782 6.25013 0.90238C6.26973 0.921978 6.28521 0.945295 6.29567 0.970961C6.30613 0.996627 6.31135 1.02413 6.31104 1.05184V1.68294ZM7.15251 9.69191C7.14862 9.80088 7.10259 9.90408 7.0241 9.97977C6.94561 10.0555 6.84081 10.0977 6.73177 10.0977H6.71652C6.66128 10.0957 6.60697 10.0829 6.55669 10.0599C6.50641 10.0369 6.46115 10.0043 6.42349 9.96381C6.38584 9.92335 6.35652 9.87586 6.33723 9.82406C6.31793 9.77226 6.30903 9.71717 6.31104 9.66193L6.5214 3.77163C6.52337 3.71638 6.5362 3.66206 6.55917 3.61176C6.58213 3.56147 6.61477 3.51619 6.65523 3.47852C6.69569 3.44084 6.74318 3.4115 6.79498 3.39218C6.84678 3.37285 6.90188 3.36392 6.95713 3.36589C7.01238 3.36785 7.0667 3.38069 7.11699 3.40365C7.16729 3.42661 7.21257 3.45925 7.25024 3.49971C7.28792 3.54018 7.31726 3.58766 7.33658 3.63946C7.35591 3.69126 7.36484 3.74636 7.36287 3.80161L7.15251 9.69191Z" fill="white"/>
</svg>
