<svg width="23" height="23" viewBox="0 0 23 23" fill="none" xmlns="http://www.w3.org/2000/svg">
<path d="M4.19644 4.56804H18.2589C18.4232 4.56797 18.5873 4.57839 18.7502 4.59924C18.695 4.21155 18.5618 3.83905 18.3588 3.50421C18.1557 3.16937 17.8869 2.87913 17.5686 2.65097C17.2503 2.42282 16.8891 2.26149 16.5068 2.1767C16.1245 2.09192 15.7289 2.08543 15.344 2.15764L3.77895 4.13211H3.76577C3.03983 4.27093 2.39427 4.68165 1.96094 5.2804C2.61379 4.81604 3.39529 4.56701 4.19644 4.56804Z" fill="white"/>
<path d="M18.2598 5.625H4.19726C3.45159 5.62581 2.7367 5.92239 2.20943 6.44966C1.68216 6.97693 1.38558 7.69183 1.38477 8.4375V16.875C1.38558 17.6207 1.68216 18.3356 2.20943 18.8628C2.7367 19.3901 3.45159 19.6867 4.19726 19.6875H18.2598C19.0054 19.6867 19.7203 19.3901 20.2476 18.8628C20.7749 18.3356 21.0714 17.6207 21.0723 16.875V8.4375C21.0714 7.69183 20.7749 6.97693 20.2476 6.44966C19.7203 5.92239 19.0054 5.62581 18.2598 5.625ZM16.1724 14.0625C15.8942 14.0625 15.6223 13.98 15.3911 13.8255C15.1598 13.671 14.9796 13.4514 14.8732 13.1944C14.7667 12.9374 14.7389 12.6547 14.7931 12.3819C14.8474 12.1091 14.9813 11.8585 15.178 11.6619C15.3747 11.4652 15.6252 11.3313 15.898 11.277C16.1708 11.2228 16.4536 11.2506 16.7105 11.357C16.9675 11.4635 17.1871 11.6437 17.3416 11.875C17.4961 12.1062 17.5786 12.3781 17.5786 12.6562C17.5786 13.0292 17.4305 13.3869 17.1667 13.6506C16.903 13.9143 16.5453 14.0625 16.1724 14.0625Z" fill="white"/>
<path d="M1.40625 11.4014V7.02881C1.40625 6.07651 1.93359 4.47998 3.76392 4.13413C5.31738 3.84277 6.85547 3.84277 6.85547 3.84277C6.85547 3.84277 7.86621 4.5459 7.03125 4.5459C6.19629 4.5459 6.21826 5.62256 7.03125 5.62256C7.84424 5.62256 7.03125 6.65527 7.03125 6.65527L3.75732 10.3687L1.40625 11.4014Z" fill="white"/>
</svg>
